<svg id="Layer_1" data-name="Layer 1" xmlns="http://www.w3.org/2000/svg" viewBox="0 0 952.23285 274.80903"><defs><style>.cls-1{fill:none;}.cls-2{fill:#303030;}</style></defs><title>Pigeon_Logo</title><path class="cls-1" d="M412.86078,242.62685q-6.79684-3.55237-22.54068-3.55109H376.11575q-16.98441,0-22.54068,3.859-5.55755,3.85642-5.55755,11.27162,0,7.71284,9.10864,10.80721,9.10608,3.08283,26.39967,3.08668,36.128,0,36.12667-13.89389Q419.65249,246.17024,412.86078,242.62685Z" transform="translate(-4.36255 -5.64306)"/><path class="cls-1" d="M100.69863,22.93408V115.5677q20.99478,0,28.7166-11.27162,7.71284-11.26906,7.718-35.66226,0-23.46181-7.41007-34.58205Q122.31434,22.9328,100.69863,22.93408Z" transform="translate(-4.36255 -5.64306)"/><path class="cls-1" d="M381.05751,164.96989q8.64038,0,13.12158-8.64423,4.47222-8.64423,4.47735-29.64286,0-20.99478-4.47735-29.64286-4.47991-8.64038-13.12158-8.64423-8.64808,0-13.12414,8.64423-4.47991,8.64808-4.47735,29.64286,0,21.00248,4.47735,29.64286Q372.40558,164.97374,381.05751,164.96989Z" transform="translate(-4.36255 -5.64306)"/><path class="cls-1" d="M553.19545,97.50436q-4.47991-11.58081-12.81368-11.57952-8.34018,0-12.81624,11.57952-4.47606,11.577-4.47478,40.91192H557.6728Q557.6728,109.08516,553.19545,97.50436Z" transform="translate(-4.36255 -5.64306)"/><path class="cls-2" d="M118.608,9.34809H4.36255v6.79428q16.67651,0,23.159,5.86545,6.4851,5.8693,6.48381,23.159V193.376q0,17.29616-6.48381,23.159-6.4851,5.8693-23.159,5.868v6.79171H132.81237v-6.79171q-17.912,0-25.01156-5.868-7.10474-5.8616-7.10218-23.159V129.15369h23.46694q38.595,0,60.05546-16.36733,21.45663-16.36092,21.46047-44.15254Q205.68151,9.34809,118.608,9.34809Zm10.80721,94.948q-7.72054,11.27676-28.7166,11.27162V22.93408q21.61057,0,29.0245,11.11768,7.41264,11.11511,7.41007,34.58205Q137.1332,93.027,129.41523,104.29607Z" transform="translate(-4.36255 -5.64306)"/><path class="cls-2" d="M281.94778,205.72786V78.51476h-72.8717v6.79171q16.67651,2.77878,16.67523,16.67523V205.72786q0,13.89389-16.67523,16.67523v6.79171h89.54437v-6.79171Q281.94778,219.62047,281.94778,205.72786Z" transform="translate(-4.36255 -5.64306)"/><path class="cls-2" d="M253.84955,63.69205a27.96667,27.96667,0,0,0,20.53165-8.49028A27.97647,27.97647,0,0,0,282.874,34.66756a27.97484,27.97484,0,0,0-8.49285-20.53165,29.06739,29.06739,0,0,0-41.06586,0,27.96257,27.96257,0,0,0-8.49028,20.53165,27.96419,27.96419,0,0,0,8.49028,20.53422A27.96419,27.96419,0,0,0,253.84955,63.69205Z" transform="translate(-4.36255 -5.64306)"/><path class="cls-2" d="M446.51657,204.8016q-15.13317-8.95213-46.626-8.95469H369.324q-11.42686,0-15.749-1.85252-4.326-1.85124-4.32083-5.86545,0-5.24966,6.17335-7.41264,6.17335-2.15528,25.31946-2.16042,30.87445,0,50.331-12.96763,19.45144-12.97019,19.45144-38.59755,0-19.1397-13.586-31.80327H459.7921V78.51476H408.53738a84.20022,84.20022,0,0,1-9.26259-1.54462,104.01229,104.01229,0,0,0-19.454-2.16042q-28.71532,0-48.47594,13.586-19.76319,13.58984-19.7619,37.97662a43.62315,43.62315,0,0,0,9.41911,27.94429q9.414,11.89255,25.16294,18.3738v.6158q-13.89389,1.551-23.31043,10.0349-9.42552,8.498-9.41911,21.76837a22.8579,22.8579,0,0,0,4.6313,14.3583A46.243,46.243,0,0,0,330.72649,230.429v.61836q-9.88352.92754-15.43851,6.022-5.55755,5.09186-5.55755,14.9741a17.78883,17.78883,0,0,0,3.859,10.96116q3.86027,5.09571,12.50578,8.95469,8.64038,3.85642,23.00253,6.17592a222.21116,222.21116,0,0,0,34.73857,2.31693q38.90288,0,58.35689-10.80721,19.45144-10.81491,19.45144-34.27415Q461.64462,213.76015,446.51657,204.8016ZM367.93337,97.03995q4.47222-8.64038,13.12414-8.64423,8.64038,0,13.12158,8.64423,4.47222,8.64808,4.47735,29.64286,0,21.00248-4.47735,29.64286-4.47991,8.64808-13.12158,8.64423-8.64808,0-13.12414-8.64423-4.47991-8.64423-4.47735-29.64286Q363.456,105.688,367.93337,97.03995Zm15.59246,171.06031q-17.29616,0-26.39967-3.08668-9.10993-3.09052-9.10864-10.80721,0-7.41264,5.55755-11.27162,5.55755-3.86412,22.54068-3.859H390.3201q15.74512,0,22.54068,3.55109,6.7853,3.54467,6.79171,11.57952Q419.65249,268.10025,383.52582,268.10025Z" transform="translate(-4.36255 -5.64306)"/><path class="cls-2" d="M593.95534,198.45249c.85506-.99169,1.52409-2.49525,2.59725-2.884,1.8955-.68636,3.82242-1.28676,5.75384-1.87433a99.52373,99.52373,0,0,0,4.76857-10.19655l-8.6468-3.7076a56.67827,56.67827,0,0,1-14.6662,18.06334q-8.49413,6.64674-20.53165,6.64033a27.29378,27.29378,0,0,1-14.6662-4.3234,44.52953,44.52953,0,0,1-12.50578-12.04137,67.287,67.287,0,0,1-8.95469-17.60149,77.19023,77.19023,0,0,1-4.01293-20.99606h82.75009a99.071,99.071,0,0,0-3.86155-27.79034A68.96674,68.96674,0,0,0,589.63,97.81226,59.69642,59.69642,0,0,0,568.0156,80.98308q-13.128-6.17335-31.33886-6.17335a59.21632,59.21632,0,0,0-27.63639,6.63776,70.82575,70.82575,0,0,0-22.23022,18.06334,87.79571,87.79571,0,0,0-14.6662,25.62736,81.1674,81.1674,0,0,0,0,57.4332,87.66336,87.66336,0,0,0,14.6662,25.62736,70.68428,70.68428,0,0,0,22.23022,18.06334,59.21632,59.21632,0,0,0,27.63639,6.63776q25.93654,0,43.53418-13.12158a76.05238,76.05238,0,0,0,18.12042-19.4168.79981.79981,0,0,1-.52022.02438C596.50768,199.78159,595.23761,199.10421,593.95534,198.45249ZM527.56553,97.50436q4.47606-11.58081,12.81624-11.57952,8.33633,0,12.81368,11.57952,4.47222,11.577,4.47735,40.91192H523.09075Q523.09075,109.08516,527.56553,97.50436Z" transform="translate(-4.36255 -5.64306)"/><path class="cls-2" d="M939.92017,205.72786V121.741q0-24.69725-11.88742-35.81621-11.8887-11.11511-31.031-11.11511-14.20563,0-23.62089,5.40361-9.42167,5.40361-21.76837,17.445V78.51476H780.59591v6.79171q16.67266,2.77878,16.67266,16.67523V205.72786q0,13.89389-16.67266,16.67523v6.79171h84.60261v-6.79171a15.55776,15.55776,0,0,1-8.80074-5.40361q-2.93657-3.86027-2.93273-11.27162V113.40471a33.81329,33.81329,0,0,1,8.80074-9.10864,19.29863,19.29863,0,0,1,11.26906-3.55109q7.10089,0,9.57305,5.24966,2.467,5.25351,2.47088,17.90939v81.82383q0,7.41264-2.93529,11.27162a15.57678,15.57678,0,0,1-8.79818,5.40361v6.79171H956.5954v-6.79171Q939.91889,219.62047,939.92017,205.72786Z" transform="translate(-4.36255 -5.64306)"/><path class="cls-2" d="M704.33156,217.83851a12.93633,12.93633,0,0,0,.9-1.01093c-2.59725-.56448-4.67427-1.01735-7.33566-1.59722C699.83433,218.87,701.19613,219.52938,704.33156,217.83851Z" transform="translate(-4.36255 -5.64306)"/><path class="cls-2" d="M692.95858,219.42033c-.18795-2.77621-1.7717-2.72874-3.39137-2.67486-1.72423.05516-3.03023-.16678-1.99171-2.47858a2.21128,2.21128,0,0,0-.58821-1.97311c-3.11939-2.65434-4.53251-6.09-5.26826-10.02464-.79989-4.27465-2.40866-6.44276-5.72626-7.35619a82.1554,82.1554,0,0,0,3.02253,13.90415q2.467,7.40879,6.17592,10.18885a13.31849,13.31849,0,0,0,1.65367,1.03146,2.5608,2.5608,0,0,1,.61195-.19757A54.45655,54.45655,0,0,1,692.95858,219.42033Z" transform="translate(-4.36255 -5.64306)"/><path class="cls-2" d="M767.32295,124.83029a79.86992,79.86992,0,0,0-15.43851-25.62992A70.48234,70.48234,0,0,0,733.6678,84.62269a16.34158,16.34158,0,0,1,2.1277,5.9745c1.55488.70816,2.05586,2.16811,2.034,5.22656-1.86791-.517-3.44268-1.01093-5.047-1.38554-4.76408-1.111-8.24076,1.60748-7.36325,6.3645,1.98466,10.75076,4.19639,21.472,6.75771,32.09963,1.467,6.09124,3.39521,12.01956,3.1258,18.40972a29.09415,29.09415,0,0,1-4.99308,15.264,36.62591,36.62591,0,0,1-6.70961,7.42162c-3.18931,2.71591-6.53513,5.24837-9.91495,7.74106-3.33684,2.46062-6.7064,4.884-9.99192,7.40879a83.52846,83.52846,0,0,0-7.60892,6.49536c-3.55237,3.48053-3.79356,6.49921-.97052,10.5981a27.2942,27.2942,0,0,0,3.79163,4.13866c.56576.53754,1.66778,1.23159,2.15977,1.01606,2.43175-1.06481,4.79615-.43234,7.16632.13086a10.921,10.921,0,0,0,5.90073.26428c.93267-.28865,2.20275.508,3.3176.80567q-.05966.51958-.118,1.03915l-.04618.408c-.06543.00257-.13214,0-.19757.00257a47.67964,47.67964,0,0,1-4.54855,6.30036c1.19759.00385,2.39262.0077,3.58124.07184.94743.05132,1.857.80053,2.78391,1.229a12.74923,12.74923,0,0,1-2.77621,1.17771c-1.324.22964-2.71078.07056-4.05976.195-.56769.0526-1.57541.37461-1.59081.62093-.19051,3.17006-2.08921,2.37979-3.68772,1.959a6.37184,6.37184,0,0,0-.6421-.14369c-2.05073-.32842-4.30993-.55293-6.02-1.58311-3.99818-2.4093-8.1625-1.9667-12.43394-1.67676-.882.059-1.81724-.65172-2.72746-1.00708.63055-.35665,1.23544-.8634,1.87818-1.15205a13.31849,13.31849,0,0,1-1.65367-1.03146q-3.70632-2.77878-6.17592-10.18885a82.1554,82.1554,0,0,1-3.02253-13.90415,16.13317,16.13317,0,0,0-3.47026-.51573c-1.91795-.0975-3.83461-.11931-5.75192-.17961a258.51328,258.51328,0,0,0-39.61425,1.62159,78.53538,78.53538,0,0,0,9.24848,12.51348,74.27875,74.27875,0,0,0,24.855,17.90939,84.77763,84.77763,0,0,0,65.76953,0,74.356,74.356,0,0,0,24.855-17.90939,77.98161,77.98161,0,0,0,15.43851-25.47341,82.86068,82.86068,0,0,0,0-58.049Z" transform="translate(-4.36255 -5.64306)"/><path class="cls-2" d="M710.4645,214.53117c-2.1091.70432-3.5729,2.61328-3.36891,5.82825,1.84161,0,3.64859-.018,5.444-.01283a47.67964,47.67964,0,0,0,4.54855-6.30036C714.85717,214.13989,712.49919,213.85251,710.4645,214.53117Z" transform="translate(-4.36255 -5.64306)"/><path class="cls-2" d="M694.14335,74.80973a80.45971,80.45971,0,0,0-32.88348,6.48381,71.641,71.641,0,0,0-24.855,17.90682,79.73288,79.73288,0,0,0-15.43851,25.62992,82.73474,82.73474,0,0,0-1.28932,54.29264,176.82473,176.82473,0,0,0,41.90873-21.6465c4.17586-2.91477,8.27026-5.95526,12.20815-9.23565A189.88861,189.88861,0,0,0,689.55054,133.513a32.74291,32.74291,0,0,0,9.19973-23.26937,74.77633,74.77633,0,0,1,3.05653-22.34568c.24183-.76076.4843-1.52281.762-2.27844a13.38629,13.38629,0,0,1,1.35539-2.68128,17.11386,17.11386,0,0,1,8.09707-6.385A89.03708,89.03708,0,0,0,694.14335,74.80973Z" transform="translate(-4.36255 -5.64306)"/><path class="cls-2" d="M704.33156,217.83851c.45607-.245.94871-.53882,1.48753-.88264-.20655-.0449-.38808-.08467-.58757-.12829A12.93633,12.93633,0,0,1,704.33156,217.83851Z" transform="translate(-4.36255 -5.64306)"/><path class="cls-2" d="M596.55259,195.56852c-1.07315.38872-1.74219,1.89229-2.59725,2.884,1.28227.65172,2.55234,1.32909,3.85578,1.93334a.79981.79981,0,0,0,.52022-.02438q2.1014-3.19636,3.97509-6.66727C600.375,194.28176,598.44808,194.88216,596.55259,195.56852Z" transform="translate(-4.36255 -5.64306)"/></svg>