<svg id="Layer_1" data-name="Layer 1" xmlns="http://www.w3.org/2000/svg" viewBox="0 0 243.86803 255.40969"><defs><style>.cls-1{fill:#fff;}</style></defs><title>Pigeon_Button_Icon</title><path class="cls-1" d="M261.04,58.27344c-1.48742-8.0615,4.4052-12.66949,12.48019-10.78636,2.71863.63376,5.38851,1.47238,8.5542,2.34885.03734-5.18469-.81217-7.65853-3.44678-8.85915,0,0-1.98737-14.84564-10.6007-13.94686-1.87327-5.22411-5.76815-8.70408-11.0965-10.61055-12.8702-4.60643-29.851,3.16154-34.62238,16.1199-4.95391,13.45624-6.39154,27.51564-6.47244,41.73685-.08713,15.20245-5.1012,28.46576-15.594,39.44245-33.67848,35.2333-73.30662,61.36991-119.33875,77.6594a157.16453,157.16453,0,0,0-17.21109,6.82458c-1.96974.9719-2.95409,3.9374-4.38757,5.99271,2.29855,1.24937,4.49233,2.80265,6.93194,3.64749,1.79963.62391,3.91977.32362,5.8978.43461a20.64812,20.64812,0,0,1-7.77419,3.83471c-7.26179,2.2332-14.61589,4.206-21.7501,6.79035-1.8183.65917-2.95305,3.20769-4.40209,4.88856,2.173,1.10519,4.32637,2.25187,6.53571,3.27719.40038.18567,1.031-.126,1.55588-.20952,15.54008-2.47747,31.0283-5.36777,46.63166-7.33906a445.22616,445.22616,0,0,1,78.44827-2.60194c9.7906.49581,13.82447,3.91665,15.5878,13.34318,1.24781,6.669,3.64282,12.4916,8.92969,16.99015a3.753,3.753,0,0,1,.99783,3.34513c-1.76125,3.91873.45328,4.29577,3.37521,4.20086,2.7456-.08972,5.43-.17063,5.74844,4.53434a92.17065,92.17065,0,0,0-9.32488.71155c-1.49364.25464-2.81925,1.49312-4.22161,2.28662,1.54343.60316,3.12835,1.80844,4.62406,1.70731,7.24-.49062,14.29849-1.24211,21.07485,2.84155,2.89911,1.74673,6.7276,2.12792,10.20447,2.68388,2.85036.45587,6.97136,3.0407,7.33855-3.076.02593-.41853,1.73428-.96464,2.69685-1.05333,2.2861-.21056,4.63651.05809,6.88112-.33036,1.63471-.28265,3.14183-1.30382,4.706-1.99619-1.57143-.72711-3.11279-1.99567-4.71949-2.08228-5.03481-.2728-10.09348-.10061-15.29737-.10061-.34644-5.44919,2.1357-8.68593,5.71006-9.87825,3.55051-1.18506,7.68395-.62391,11.56223-.82824q.13847-1.22681.278-2.45258c-1.88987-.50307-4.04216-1.8546-5.62293-1.364-7.49932,2.326-14.63664-3.9597-22.1484-.67058-.83395.36459-2.702-.81113-3.66149-1.72339a46.15574,46.15574,0,0,1-6.4268-7.01492c-4.78484-6.94646-4.37616-12.06321,1.64508-17.96205a141.6485,141.6485,0,0,1,12.89717-11.01144c11.2106-8.6128,23-16.52754,33.74175-25.67867,11.64936-9.92337,19.16216-22.5078,19.83637-38.45136.45743-10.831-2.81095-20.88035-5.29827-31.20462C268.15247,94.66949,264.40384,76.49636,261.04,58.27344ZM227.81692,255.15483c-7.18814,4.58464-9.66613,4.14174-13.43032-2.92608C219.24508,253.28726,222.91176,254.08646,227.81692,255.15483Z" transform="translate(-38.20758 -15.08276)"/></svg>